<svg xmlns="http://www.w3.org/2000/svg" viewBox="0 0 512 512" role="img" aria-label="ModelStudio mark">
  <rect width="512" height="512" rx="96" fill="#05070c"/>
  <path d="M202 44h104c12 0 23 7 29 18l34 62h116c15 0 28 8 36 21l52 91c8 13 8 29 0 42l-52 91c-8 13-21 21-36 21H369l-57 100c-8 13-21 22-37 22h-70c-15 0-29-8-37-22l-58-100H71c-15 0-29-8-36-21l-52-91c-8-13-8-29 0-42l52-91c7-13 21-21 36-21h39l57-99c7-13 20-21 35-21Z" fill="#5046c7"/>
  <path d="M210 44h96c12 0 23 7 29 18l34 62h116c15 0 28 8 36 21l52 91c8 13 8 29 0 42l-52 91c-8 13-21 21-36 21H369l-57 100c-8 13-21 22-37 22h-47L352 292H177l75 132H132L30 246h120L246 78Z" fill="#6658f0"/>
  <path d="M209 48 87 257h111L300 80Zm-122 209 102 177h120l-102-177Zm119 0h218l-104 181h120l70-121 30 52h118l-71-123 49-85H262Z" fill="#fff"/>
</svg>
